<svg id="eQUnM1Arjed1" xmlns="http://www.w3.org/2000/svg" xmlns:xlink="http://www.w3.org/1999/xlink" viewBox="0 0 61 60" shape-rendering="geometricPrecision" text-rendering="geometricPrecision" project-id="b1835a14c77d4a3283efc53043de0d21" export-id="d14d8c354cac48d39c9336ff25e8ba8a" cached="false">
<style><![CDATA[
#eQUnM1Arjed2_to {animation: eQUnM1Arjed2_to__to 3000ms linear infinite normal forwards}@keyframes eQUnM1Arjed2_to__to { 0% {transform: translate(30.4708px,18.016495px)} 33.333333% {transform: translate(30.4708px,13.016495px)} 100% {transform: translate(30.4708px,13.016495px)}} #eQUnM1Arjed3_to {animation: eQUnM1Arjed3_to__to 3000ms linear infinite normal forwards}@keyframes eQUnM1Arjed3_to__to { 0% {transform: translate(30.474501px,33.964451px)} 33.333333% {transform: translate(30.474501px,28.964451px)} 100% {transform: translate(30.474501px,28.964451px)}} #eQUnM1Arjed4_ts {animation: eQUnM1Arjed4_ts__ts 3000ms linear infinite normal forwards}@keyframes eQUnM1Arjed4_ts__ts { 0% {transform: translate(11.543755px,48.7736px) scale(0.5,0.5)} 33.333333% {transform: translate(11.543755px,48.7736px) scale(1,1)} 100% {transform: translate(11.543755px,48.7736px) scale(1,1)}} #eQUnM1Arjed4 {animation: eQUnM1Arjed4_c_o 3000ms linear infinite normal forwards}@keyframes eQUnM1Arjed4_c_o { 0% {opacity: 0} 16.666667% {opacity: 1} 100% {opacity: 1}} #eQUnM1Arjed5_ts {animation: eQUnM1Arjed5_ts__ts 3000ms linear infinite normal forwards}@keyframes eQUnM1Arjed5_ts__ts { 0% {transform: translate(49.457851px,48.7736px) scale(0.5,0.5)} 33.333333% {transform: translate(49.457851px,48.7736px) scale(1,1)} 100% {transform: translate(49.457851px,48.7736px) scale(1,1)}} #eQUnM1Arjed5 {animation: eQUnM1Arjed5_c_o 3000ms linear infinite normal forwards}@keyframes eQUnM1Arjed5_c_o { 0% {opacity: 0} 33.333333% {opacity: 0} 50% {opacity: 1} 100% {opacity: 1}} #eQUnM1Arjed6_ts {animation: eQUnM1Arjed6_ts__ts 3000ms linear infinite normal forwards}@keyframes eQUnM1Arjed6_ts__ts { 0% {transform: translate(30.5008px,40.689099px) scale(0.5,0.5)} 33.333333% {transform: translate(30.5008px,40.689099px) scale(1,1)} 100% {transform: translate(30.5008px,40.689099px) scale(1,1)}} #eQUnM1Arjed6 {animation: eQUnM1Arjed6_c_o 3000ms linear infinite normal forwards}@keyframes eQUnM1Arjed6_c_o { 0% {opacity: 0} 16.666667% {opacity: 0} 33.333333% {opacity: 1} 100% {opacity: 1}}
]]></style>
<g id="eQUnM1Arjed2_to" transform="translate(30.4708,18.016495)"><path d="M30.4708,23.5679c5.7548,0,10.42-4.724,10.42-10.5514s-4.6652-10.55141-10.42-10.55141-10.42,4.72402-10.42,10.55141s4.6652,10.5514,10.42,10.5514Z" transform="translate(-30.4708,-13.016495)" fill="none" stroke="#00aeef" stroke-width="2" stroke-linecap="round" stroke-linejoin="round"/></g><g id="eQUnM1Arjed3_to" transform="translate(30.474501,33.964451)"><path d="M11.9023,34.3393c3.7308-6.4432,10.6485-10.7717,18.5668-10.7717s14.8468,4.3395,18.5776,10.7937" transform="translate(-30.474501,-28.964451)" fill="none" stroke="#00aeef" stroke-width="2" stroke-linecap="round" stroke-linejoin="round"/></g><g id="eQUnM1Arjed4_ts" transform="translate(11.543755,48.7736) scale(0.5,0.5)"><path id="eQUnM1Arjed4" d="M11.5383,40.012l2.1536,6.6965h6.9503l-5.6233,4.1302l2.1428,6.6965-5.6234-4.1412-5.62328,4.1412l2.15361-6.6965-5.62332-4.1302h6.95029l2.1427-6.6965Z" transform="translate(-11.543755,-48.7736)" opacity="0" fill="none" stroke="#00aeef" stroke-width="1.5" stroke-linecap="round" stroke-linejoin="round"/></g><g id="eQUnM1Arjed5_ts" transform="translate(49.457851,48.7736) scale(0.5,0.5)"><path id="eQUnM1Arjed5" d="M49.4524,40.012l2.1536,6.6965h6.9503L52.933,50.8387l2.1427,6.6965-5.6233-4.1412-5.6233,4.1412l2.1536-6.6965-5.6233-4.1302h6.9503l2.1427-6.6965Z" transform="translate(-49.457851,-48.7736)" opacity="0" fill="none" stroke="#00aeef" stroke-width="1.5" stroke-linecap="round" stroke-linejoin="round"/></g><g id="eQUnM1Arjed6_ts" transform="translate(30.5008,40.689099) scale(0.5,0.5)"><path id="eQUnM1Arjed6" d="M30.4954,31.9275L32.649,38.613h6.9503l-5.6234,4.1412l2.1428,6.6965-5.6233-4.1412-5.6233,4.1412l2.1536-6.6965-5.6234-4.1412h6.9503l2.1428-6.6855Z" transform="translate(-30.5008,-40.689099)" opacity="0" fill="none" stroke="#00aeef" stroke-width="1.5" stroke-linecap="round" stroke-linejoin="round"/></g></svg>
