<svg id="edv7CQ5zmBj1" xmlns="http://www.w3.org/2000/svg" xmlns:xlink="http://www.w3.org/1999/xlink" viewBox="0 0 60 60" shape-rendering="geometricPrecision" text-rendering="geometricPrecision" project-id="71f2c9ffb6a74cb58db8938642805cd3" export-id="a299921962f745e3b8055b7972f32d19" cached="false">
<style><![CDATA[
#edv7CQ5zmBj2_ts {animation: edv7CQ5zmBj2_ts__ts 3000ms linear infinite normal forwards}@keyframes edv7CQ5zmBj2_ts__ts { 0% {transform: translate(29.9935px,30.005699px) scale(0.5,0.5)} 33.333333% {transform: translate(29.9935px,30.005699px) scale(1,1)} 100% {transform: translate(29.9935px,30.005699px) scale(1,1)}} #edv7CQ5zmBj2 {animation: edv7CQ5zmBj2_s_do 3000ms linear infinite normal forwards}@keyframes edv7CQ5zmBj2_s_do { 0% {stroke-dashoffset: 91.92} 33.333333% {stroke-dashoffset: 0} 100% {stroke-dashoffset: 0}} #edv7CQ5zmBj3_ts {animation: edv7CQ5zmBj3_ts__ts 3000ms linear infinite normal forwards}@keyframes edv7CQ5zmBj3_ts__ts { 0% {transform: translate(29.8976px,29.858199px) scale(0.5,0.5)} 33.333333% {transform: translate(29.8976px,29.858199px) scale(1,1)} 100% {transform: translate(29.8976px,29.858199px) scale(1,1)}} #edv7CQ5zmBj3 {animation-name: edv7CQ5zmBj3_c_o, edv7CQ5zmBj3_s_do;animation-duration: 3000ms;animation-fill-mode: forwards;animation-timing-function: linear;animation-direction: normal;animation-iteration-count: infinite;}@keyframes edv7CQ5zmBj3_c_o { 0% {opacity: 0} 33.333333% {opacity: 1} 100% {opacity: 1}}@keyframes edv7CQ5zmBj3_s_do { 0% {stroke-dashoffset: 19.74} 50% {stroke-dashoffset: 0} 100% {stroke-dashoffset: 0}} #edv7CQ5zmBj4_ts {animation: edv7CQ5zmBj4_ts__ts 3000ms linear infinite normal forwards}@keyframes edv7CQ5zmBj4_ts__ts { 0% {transform: translate(30.0089px,29.994274px) scale(0.5,0.5)} 33.333333% {transform: translate(30.0089px,29.994274px) scale(1,1)} 100% {transform: translate(30.0089px,29.994274px) scale(1,1)}} #edv7CQ5zmBj4 {animation: edv7CQ5zmBj4_c_o 3000ms linear infinite normal forwards}@keyframes edv7CQ5zmBj4_c_o { 0% {opacity: 0} 33.333333% {opacity: 1} 100% {opacity: 1}}
]]></style>
<g id="edv7CQ5zmBj2_ts" transform="translate(29.9935,30.005699) scale(0.5,0.5)"><path id="edv7CQ5zmBj2" d="M29.9991,15.3755c-8.0667,0-14.6358,6.5578-14.6358,14.6245s6.5691,14.6359,14.6358,14.6359c8.0668,0,14.6246-6.5692,14.6246-14.6359s-6.5578-14.6245-14.6246-14.6245Z" transform="translate(-29.9935,-30.005699)" fill="none" stroke="#00aeef" stroke-width="2" stroke-linecap="round" stroke-linejoin="round" stroke-dashoffset="91.92" stroke-dasharray="91.92"/></g><g id="edv7CQ5zmBj3_ts" transform="translate(29.8976,29.858199) scale(0.5,0.5)"><path id="edv7CQ5zmBj3" d="M22.8633,29.8866l4.6857,4.5949l9.3829-9.2466" transform="translate(-29.8976,-29.858199)" opacity="0" fill="none" stroke="#00aeef" stroke-width="2" stroke-linecap="round" stroke-linejoin="round" stroke-dashoffset="19.74" stroke-dasharray="19.74"/></g><g id="edv7CQ5zmBj4_ts" transform="translate(30.0089,29.994274) scale(0.5,0.5)"><path id="edv7CQ5zmBj4" d="M32.6922,3.70078l5.0601,5.68416c.3404.38575.8396.58997,1.3501.55593l7.6016-.44248c2.1443-.1248,3.9256,1.64511,3.8008,3.80081l-.4425,7.6015c-.034.5106.1815,1.0098.556,1.3502l5.6841,5.0601c1.5997,1.4296,1.5997,3.937,0,5.3665l-5.6841,5.0602c-.3858.3403-.59.8395-.556,1.3501l.4425,7.6016c.1248,2.1443-1.6451,3.9255-3.8008,3.8007l-7.6016-.4424c-.5105-.0341-1.0097.1815-1.3501.5559l-5.0601,5.6842c-1.4296,1.5997-3.937,1.5997-5.3665,0l-5.0602-5.6842c-.3403-.3857-.8396-.59-1.3501-.5559l-7.6016.4424c-2.1443.1248-3.92556-1.6451-3.80076-3.8007l.44248-7.6016c.03404-.5106-.18153-1.0098-.55593-1.3501L3.71543,32.6775c-1.59974-1.4295-1.59974-3.9369,0-5.3665l5.68416-5.0601c.38575-.3404.58997-.8396.55593-1.3502l-.44248-7.6015c-.1248-2.1443,1.64516-3.92561,3.80076-3.80081l7.6016.44248c.5105.03404,1.0098-.18153,1.3501-.55593l5.0602-5.68416c1.4295-1.59974,3.9369-1.59974,5.3665,0Z" transform="translate(-30.0089,-29.994274)" opacity="0" fill="none" stroke="#00aeef" stroke-width="2" stroke-linecap="round" stroke-linejoin="round"/></g></svg>
