<svg width="61" height="60" viewBox="0 0 61 60" fill="none" xmlns="http://www.w3.org/2000/svg">
<path d="M30.4708 23.5676C36.2256 23.5676 40.8908 18.8436 40.8908 13.0162C40.8908 7.18887 36.2256 2.46484 30.4708 2.46484C24.716 2.46484 20.0508 7.18887 20.0508 13.0162C20.0508 18.8436 24.716 23.5676 30.4708 23.5676Z" stroke="#00AEEF" stroke-width="2" stroke-linecap="round" stroke-linejoin="round"/>
<path d="M11.9023 34.3391C15.6331 27.8959 22.5508 23.5674 30.4691 23.5674C38.3874 23.5674 45.3159 27.9069 49.0467 34.3611" stroke="#00AEEF" stroke-width="2" stroke-linecap="round" stroke-linejoin="round"/>
<path d="M11.5383 40.0117L13.6919 46.7082H20.6422L15.0189 50.8385L17.1617 57.535L11.5383 53.3937L5.91502 57.535L8.06863 50.8385L2.44531 46.7082H9.3956L11.5383 40.0117Z" stroke="#00AEEF" stroke-width="1.5" stroke-linecap="round" stroke-linejoin="round"/>
<path d="M49.4524 40.0117L51.606 46.7082H58.5563L52.933 50.8385L55.0757 57.535L49.4524 53.3937L43.8291 57.535L45.9827 50.8385L40.3594 46.7082H47.3097L49.4524 40.0117Z" stroke="#00AEEF" stroke-width="1.5" stroke-linecap="round" stroke-linejoin="round"/>
<path d="M30.4954 31.9277L32.649 38.6132H39.5993L33.9759 42.7545L36.1187 49.451L30.4954 45.3097L24.8721 49.451L27.0257 42.7545L21.4023 38.6132H28.3526L30.4954 31.9277Z" stroke="#00AEEF" stroke-width="1.5" stroke-linecap="round" stroke-linejoin="round"/>
</svg>
