<svg width="61" height="60" viewBox="0 0 61 60" fill="none" xmlns="http://www.w3.org/2000/svg">
<path d="M30.4708 23.5679C36.2256 23.5679 40.8908 18.8439 40.8908 13.0165C40.8908 7.18911 36.2256 2.46509 30.4708 2.46509C24.716 2.46509 20.0508 7.18911 20.0508 13.0165C20.0508 18.8439 24.716 23.5679 30.4708 23.5679Z" stroke="#00AEEF" stroke-width="2" stroke-linecap="round" stroke-linejoin="round"/>
<path d="M11.9023 34.3393C15.6331 27.8961 22.5508 23.5676 30.4691 23.5676C38.3874 23.5676 45.3159 27.9071 49.0467 34.3613" stroke="#00AEEF" stroke-width="2" stroke-linecap="round" stroke-linejoin="round"/>
<path d="M11.5383 40.012L13.6919 46.7085H20.6422L15.0189 50.8387L17.1617 57.5352L11.5383 53.394L5.91502 57.5352L8.06863 50.8387L2.44531 46.7085H9.3956L11.5383 40.012Z" stroke="#00AEEF" stroke-width="1.5" stroke-linecap="round" stroke-linejoin="round"/>
<path d="M49.4524 40.012L51.606 46.7085H58.5563L52.933 50.8387L55.0757 57.5352L49.4524 53.394L43.8291 57.5352L45.9827 50.8387L40.3594 46.7085H47.3097L49.4524 40.012Z" stroke="#00AEEF" stroke-width="1.5" stroke-linecap="round" stroke-linejoin="round"/>
<path d="M30.4954 31.9275L32.649 38.613H39.5993L33.9759 42.7542L36.1187 49.4507L30.4954 45.3095L24.8721 49.4507L27.0257 42.7542L21.4023 38.613H28.3526L30.4954 31.9275Z" stroke="#00AEEF" stroke-width="1.5" stroke-linecap="round" stroke-linejoin="round"/>
</svg>
