<svg width="824" height="153" viewBox="0 0 824 153" fill="none" xmlns="http://www.w3.org/2000/svg">
<path opacity="0.4" d="M-15.9949 92.2607C-28.3636 106.03 -33.3273 126.451 -27.21 143.883C-21.0926 161.314 -13.5741 144.273 4.97748 143.883C47.1183 142.992 100.645 126.579 116.774 91.5831C120.606 83.2837 123.697 74.0609 121.781 65.1294C119.864 56.1979 111.218 48.1713 102.202 49.908C90.4807 52.1747 89.0072 72.2387 100.273 76.1833C118.578 82.5856 144.814 54.7517 156.847 44.6524C179.612 25.5395 207.722 12.8099 237.444 9.6809C269.711 6.29145 301.603 16.7772 332.002 26.0867C366.469 36.6323 395.864 58.7442 429.66 70.9179C439.5 74.4569 449.635 77.1365 459.821 79.5162C513.624 92.1159 515.32 95.2619 570.5 91.9693C610.505 89.5896 626.683 75.6765 676 30.4693C706 2.96926 756 11.4687 788 19.4687C861.5 26.5856 819.256 -58.2517 830 -36.0305" stroke="url(#paint0_linear_16_2049)" stroke-width="0.75" stroke-miterlimit="10" stroke-dasharray="5.49 5.49"/>
<defs>
<linearGradient id="paint0_linear_16_2049" x1="694.775" y1="-121.745" x2="139.337" y2="346.514" gradientUnits="userSpaceOnUse">
<stop offset="0.07" stop-color="#1C5FB5"/>
<stop offset="0.09" stop-color="#195AAD"/>
<stop offset="0.14" stop-color="#144C97"/>
<stop offset="0.19" stop-color="#0F4286"/>
<stop offset="0.26" stop-color="#0C3B7A"/>
<stop offset="0.36" stop-color="#0A3773"/>
<stop offset="0.64" stop-color="#0A3672"/>
<stop offset="0.8" stop-color="#072864"/>
<stop offset="1" stop-color="#061B58"/>
</linearGradient>
</defs>
</svg>
