<svg width="105" height="76" viewBox="0 0 105 76" fill="none" xmlns="http://www.w3.org/2000/svg">
<g clip-path="url(#clip0_621_6)">
<path d="M105 65.2896H0V75.9923H105V65.2896Z" fill="#9A9A9A"/>
<path d="M105 0H0V64.2317H105V0Z" fill="#00AEEF"/>
<path d="M9.23828 55.9228V8.72587H44.4024V17.2201H17.962V28.0772H33.8016V36.5714H17.962V47.4286H34.5094V55.9228H9.23828Z" fill="white"/>
<path d="M42.4062 55.9228V8.72587H74.7394V17.2201H51.1223V28.0772H66.9696V36.5714H51.1223V47.4286H67.6696V55.9228H42.4062Z" fill="white"/>
<path d="M80.3459 55.9228V17.2201H71.6914V8.72587H97.8472V17.2201H89.0696V55.9228H80.3459Z" fill="white"/>
<path d="M4.07031 67.7606H5.84737C6.13969 67.7606 6.39356 67.7915 6.62435 67.8378C6.85513 67.8919 7.06284 67.9614 7.23977 68.054C7.4244 68.139 7.58595 68.2471 7.72443 68.3707C7.8629 68.4942 7.98598 68.6255 8.08599 68.7722C8.28601 69.0502 8.43217 69.3513 8.51679 69.6602C8.60911 69.9691 8.65526 70.2703 8.65526 70.5328C8.65526 70.7181 8.63988 70.9112 8.60141 71.0965C8.56295 71.2896 8.51679 71.4595 8.46294 71.6371C8.4014 71.8069 8.33216 71.9691 8.24754 72.1158C8.17061 72.2625 8.07061 72.3861 7.9629 72.4865C7.6475 72.7954 7.30901 73.0116 6.94745 73.1197C6.58588 73.2278 6.20893 73.2818 5.81659 73.2818H4.07031V67.7683V67.7606ZM4.87037 72.5405H5.82429C6.07046 72.5405 6.30894 72.5096 6.54742 72.4401C6.7859 72.3706 7.0013 72.2625 7.19362 72.1081C7.38594 71.9537 7.54749 71.7529 7.66288 71.4903C7.78597 71.2355 7.83982 70.9189 7.83982 70.5328C7.83982 70.3243 7.80905 70.1004 7.73212 69.861C7.66288 69.6216 7.55518 69.4054 7.39363 69.2046C7.23208 69.0039 7.03207 68.834 6.77051 68.7027C6.51665 68.5714 6.20124 68.5019 5.82429 68.5019H4.85499V72.5328L4.87037 72.5405Z" fill="white"/>
<path d="M9.49219 73.2741V67.7606H12.4539V68.5019H10.2922V70.1313H12.4539V70.8649H10.2922V72.5405H12.4539V73.2741H9.49219Z" fill="white"/>
<path d="M13.7999 71.6448C13.7999 71.6911 13.8076 71.7683 13.823 71.8765C13.8384 71.9923 13.8769 72.1004 13.9384 72.2162C13.9923 72.3243 14.0846 72.4247 14.2077 72.5097C14.3307 72.6023 14.4846 72.6409 14.6846 72.6409C14.9385 72.6409 15.1462 72.556 15.3154 72.3938C15.4847 72.2317 15.5693 72 15.5693 71.7066C15.5693 71.5521 15.5385 71.4286 15.4847 71.3282C15.4308 71.2278 15.3616 71.1506 15.2693 71.0811C15.1847 71.0193 15.0923 70.9653 14.9846 70.9266C14.8769 70.888 14.7769 70.8417 14.6846 70.8108C14.5077 70.7413 14.3538 70.6795 14.2307 70.6332C14.1077 70.5792 14.0076 70.5328 13.923 70.4865C13.8461 70.4402 13.7692 70.4015 13.7076 70.3475C13.6461 70.3012 13.5845 70.2548 13.523 70.1853C13.3922 70.0618 13.2999 69.9073 13.2384 69.722C13.1845 69.5367 13.1537 69.3436 13.1537 69.1506C13.1537 68.9961 13.1845 68.8263 13.2461 68.6487C13.3076 68.471 13.3999 68.3089 13.5307 68.1622C13.6615 68.0154 13.823 67.8919 14.0076 67.7992C14.2 67.6988 14.4231 67.6525 14.6846 67.6525C14.9154 67.6525 15.1231 67.6834 15.3154 67.7606C15.5078 67.8301 15.677 67.9382 15.8155 68.0695C15.9539 68.2008 16.0616 68.3629 16.1463 68.5483C16.2232 68.7413 16.2617 68.9498 16.2617 69.1815H15.4616C15.4616 69.027 15.4385 68.9035 15.3847 68.8031C15.3308 68.7027 15.2693 68.6178 15.1923 68.5637C15.1154 68.5019 15.0308 68.4556 14.9385 68.4324C14.8539 68.4093 14.7615 68.3938 14.6846 68.3938C14.5692 68.3938 14.4615 68.417 14.3692 68.4633C14.2769 68.5097 14.2 68.5714 14.1384 68.6409C14.0769 68.7181 14.0307 68.7954 14 68.888C13.9692 68.9807 13.9538 69.0579 13.9538 69.1429C13.9538 69.2741 13.9769 69.39 14.0307 69.4749C14.0846 69.5598 14.1538 69.6293 14.2307 69.6834C14.3077 69.7375 14.3846 69.7838 14.4692 69.8147C14.5538 69.8533 14.6231 69.8764 14.6846 69.8996C14.8539 69.9614 15.0462 70.0309 15.2462 70.1081C15.4385 70.1776 15.6232 70.278 15.7924 70.4093C15.9539 70.5328 16.0924 70.7027 16.2078 70.9035C16.3232 71.1042 16.3771 71.3745 16.3771 71.7066C16.3771 71.9459 16.3309 72.1699 16.254 72.3707C16.1693 72.5792 16.054 72.749 15.9078 72.8958C15.7616 73.0425 15.5847 73.1583 15.377 73.2432C15.1693 73.3282 14.9385 73.3668 14.6846 73.3668C14.5 73.3668 14.3077 73.3359 14.1077 73.2741C13.9076 73.2124 13.723 73.112 13.5615 72.9653C13.3999 72.8263 13.2614 72.6409 13.1537 72.4247C13.0537 72.2008 12.9922 71.9459 12.9922 71.6371H13.7922L13.7999 71.6448Z" fill="white"/>
<path d="M17.675 73.2741V68.5019H16.6211V67.7606H19.529V68.5019H18.4751V73.2741H17.675Z" fill="white"/>
<path d="M20.9407 67.7683H20.1406V73.2819H20.9407V67.7683Z" fill="white"/>
<path d="M25.5818 73.2741L22.8662 69.0193H22.8585V73.2741H22.0508V67.7606H22.9278L25.5972 71.9614H25.6126V67.7606H26.4126V73.2741H25.5818Z" fill="white"/>
<path d="M31.1052 73.2741L30.4974 71.6525H28.5204L27.9126 73.2741H27.0664L29.1512 67.7606H29.8743L31.9591 73.2741H31.1052ZM30.2282 70.9189L29.5281 68.8108H29.5127L28.805 70.9189H30.2205H30.2282Z" fill="white"/>
<path d="M32.9914 73.2741V68.5019H31.9375V67.7606H34.8454V68.5019H33.7915V73.2741H32.9914Z" fill="white"/>
<path d="M36.2649 67.7683H35.4648V73.2819H36.2649V67.7683Z" fill="white"/>
<path d="M42.8058 70.5328C42.8058 70.9112 42.7365 71.2741 42.5904 71.6139C42.4519 71.9537 42.2442 72.2548 41.9903 72.5174C41.7288 72.7799 41.4287 72.9884 41.0826 73.1429C40.7364 73.2973 40.3594 73.3745 39.9517 73.3745C39.544 73.3745 39.1593 73.2973 38.8132 73.1429C38.4593 72.9884 38.1593 72.7799 37.9054 72.5174C37.6515 72.2548 37.4515 71.9537 37.3131 71.6062C37.1746 71.2587 37.0977 70.9035 37.0977 70.5251C37.0977 70.1467 37.1669 69.7915 37.3131 69.444C37.4515 69.0965 37.6515 68.7954 37.8977 68.5328C38.1516 68.2703 38.4516 68.0541 38.7978 67.8996C39.144 67.7452 39.5286 67.668 39.9517 67.668C40.3748 67.668 40.7364 67.7375 41.0826 67.8919C41.4287 68.0463 41.7288 68.2471 41.9903 68.5097C42.2442 68.7722 42.4519 69.0734 42.5904 69.4286C42.7365 69.7761 42.8058 70.1467 42.8058 70.5405M42.0057 70.5405C42.0057 70.2934 41.9596 70.0463 41.8749 69.7992C41.7903 69.5444 41.6595 69.3127 41.4903 69.1043C41.321 68.8958 41.1056 68.7259 40.8518 68.5946C40.5902 68.4633 40.2979 68.3938 39.9517 68.3938C39.6055 68.3938 39.2901 68.4633 39.0286 68.6023C38.767 68.7413 38.5593 68.9189 38.3901 69.1274C38.2208 69.3359 38.0977 69.5676 38.0131 69.8147C37.9285 70.0618 37.89 70.2934 37.89 70.5174C37.89 70.7413 37.9285 70.973 38.0131 71.2278C38.09 71.4749 38.2208 71.7066 38.3901 71.9151C38.5593 72.1236 38.7747 72.2934 39.0286 72.4324C39.2901 72.5714 39.5978 72.6409 39.944 72.6409C40.2902 72.6409 40.6056 72.5792 40.8672 72.4324C41.121 72.3012 41.3364 72.1236 41.5057 71.9151C41.6749 71.7066 41.798 71.4749 41.8749 71.2278C41.9596 70.9807 41.998 70.7568 41.998 70.5328" fill="white"/>
<path d="M47.1638 73.2741L44.4483 69.0193H44.4406V73.2741H43.6328V67.7606H44.5098L47.1792 71.9614H47.1946V67.7606H47.9947V73.2741H47.1638Z" fill="white"/>
<path d="M56.1875 73.2741V68.6255H56.1644L54.3104 73.2741H53.8335L51.9795 68.6255H51.9641V73.2741H51.1641V67.7606H52.4257L54.072 71.9923L55.7259 67.7606H56.9876V73.2741H56.1875Z" fill="white"/>
<path d="M61.6716 73.2741L61.0638 71.6525H59.0868L58.479 73.2741H57.6328L59.7176 67.7606H60.433L62.5178 73.2741H61.6639H61.6716ZM60.7869 70.9189L60.0945 68.8108H60.0791L59.3791 70.9189H60.7946H60.7869Z" fill="white"/>
<path d="M66.6989 73.2741L63.9833 69.0193H63.9679V73.2741H63.1602V67.7606H64.0371L66.7143 71.9614H66.722V67.7606H67.5297V73.2741H66.6989Z" fill="white"/>
<path d="M72.2184 73.2741L71.6107 71.6525H69.6336L69.0259 73.2741H68.1797L70.2645 67.7606H70.9876L73.0724 73.2741H72.2184ZM71.3338 70.9189L70.6414 68.8108H70.626L69.9183 70.9189H71.3338Z" fill="white"/>
<path d="M77.5227 69.1506C77.4612 69.0888 77.392 69.0116 77.2996 68.9267C77.215 68.8417 77.1073 68.7568 76.9842 68.6795C76.8611 68.6023 76.715 68.5328 76.5611 68.4788C76.3996 68.4247 76.2226 68.3938 76.0226 68.3938C75.738 68.3938 75.4687 68.4556 75.2226 68.5714C74.9764 68.6873 74.761 68.8417 74.5841 69.0348C74.3994 69.2278 74.2533 69.4595 74.1533 69.7143C74.0532 69.9691 73.9994 70.2471 73.9994 70.5328C73.9994 70.834 74.0532 71.112 74.1763 71.3745C74.2917 71.6294 74.4456 71.8533 74.6302 72.0463C74.8148 72.2317 75.0379 72.3784 75.2841 72.4865C75.5303 72.5946 75.7841 72.6487 76.0457 72.6487C76.0688 72.6487 76.1226 72.6487 76.1996 72.6409C76.2765 72.6409 76.3765 72.6178 76.4842 72.5946C76.5919 72.5637 76.715 72.5251 76.8458 72.4711C76.9765 72.4093 77.1073 72.3398 77.2458 72.2394C77.3766 72.1313 77.4997 72.0077 77.6227 71.8533C77.7381 71.6989 77.8458 71.5058 77.9381 71.2819H75.3764V70.5405H78.8536C78.8459 71.0039 78.7536 71.4131 78.5843 71.7684C78.4074 72.1236 78.192 72.417 77.9305 72.6564C77.6612 72.8958 77.3612 73.0811 77.0227 73.1969C76.6919 73.3205 76.3534 73.3822 76.0226 73.3822C75.6226 73.3822 75.2456 73.305 74.9072 73.1583C74.561 73.0116 74.2686 72.8031 74.0148 72.5406C73.7686 72.278 73.5686 71.9768 73.4224 71.6371C73.2763 71.2973 73.207 70.9266 73.207 70.5405C73.207 70.1544 73.2763 69.7684 73.4224 69.4209C73.5609 69.0734 73.7686 68.7645 74.0148 68.5097C74.2686 68.2471 74.561 68.0386 74.9072 67.8919C75.2533 67.7375 75.6226 67.668 76.0149 67.668C76.2457 67.668 76.4842 67.6989 76.715 67.7606C76.9535 67.8224 77.1765 67.9151 77.3919 68.0386C77.6073 68.1622 77.8074 68.3243 77.992 68.5019C78.1766 68.6873 78.3382 68.9035 78.469 69.1506H77.5304H77.5227Z" fill="white"/>
<path d="M79.543 73.2741V67.7606H82.5047V68.5019H80.3507V70.1313H82.5047V70.8649H80.3507V72.5405H82.5047V73.2741H79.543Z" fill="white"/>
<path d="M88.504 73.2741V68.6255H88.481L86.6347 73.2741H86.1577L84.296 68.6255H84.2806V73.2741H83.4883V67.7606H84.7499L86.3962 71.9923L88.0502 67.7606H89.3118V73.2741H88.504Z" fill="white"/>
<path d="M90.3477 73.2741V67.7606H93.3094V68.5019H91.1554V70.1313H93.3094V70.8649H91.1554V72.5405H93.3094V73.2741H90.3477Z" fill="white"/>
<path d="M97.8123 73.2741L95.0967 69.0193H95.0813V73.2741H94.2812V67.7606H95.1582L97.8277 71.9614H97.8431V67.7606H98.6431V73.2741H97.8123Z" fill="white"/>
<path d="M100.308 73.2741V68.5019H99.2539V67.7606H102.169V68.5019H101.108V73.2741H100.308Z" fill="white"/>
</g>
<defs>
<clipPath id="clip0_621_6">
<rect width="105" height="76" fill="white"/>
</clipPath>
</defs>
</svg>
